<?xml version="1.0" encoding="utf-8"?>
<!-- Generator: Adobe Illustrator 21.0.0, SVG Export Plug-In . SVG Version: 6.00 Build 0)  -->
<svg version="1.1" id="Layer_1" xmlns="http://www.w3.org/2000/svg" xmlns:xlink="http://www.w3.org/1999/xlink" x="0px" y="0px"
	 width="30px" height="20px" viewBox="0 0 30 20" style="enable-background:new 0 0 30 20;" xml:space="preserve">
<style type="text/css">
	.st0{opacity:0.7;fill:#FFFFFF;}
</style>
<path class="st0" d="M19.3,15.6c0,0.2-0.2,0.4-0.4,0.4c-0.2,0-0.4-0.2-0.4-0.4s0.2-0.4,0.4-0.4C19.2,15.1,19.3,15.3,19.3,15.6z
	 M10.8,15.1c-0.2,0-0.4,0.2-0.4,0.4s0.2,0.4,0.4,0.4c0.2,0,0.4-0.2,0.4-0.4C11.2,15.3,11.1,15.1,10.8,15.1z M15.1,15.1
	c-0.2,0-0.3,0.1-0.4,0.3h0.7C15.4,15.2,15.2,15.1,15.1,15.1z M21.6,15.1c-0.2,0-0.4,0.2-0.4,0.4s0.2,0.4,0.4,0.4
	c0.2,0,0.4-0.2,0.4-0.4C22,15.3,21.8,15.1,21.6,15.1z M30,2.5v15c0,1.4-1.1,2.5-2.5,2.5h-25C1.1,20,0,18.9,0,17.5v-15
	C0,1.1,1.1,0,2.5,0h25C28.9,0,30,1.1,30,2.5z M6.9,8.7c0,2.8,2.2,5,5,5c1,0,1.9-0.3,2.6-0.7c-1.2-1-2-2.5-2-4.2s0.8-3.2,2-4.2
	c-0.8-0.5-1.7-0.7-2.6-0.7C9.2,3.8,6.9,6,6.9,8.7z M9.9,15.4c0-0.3-0.2-0.5-0.5-0.5c-0.2,0-0.3,0.1-0.5,0.2
	c-0.1-0.1-0.2-0.2-0.4-0.2c-0.1,0-0.3,0-0.4,0.2v-0.2H7.8v1.3h0.3v-0.7c0-0.2,0.1-0.4,0.3-0.4c0.2,0,0.3,0.1,0.3,0.3v0.7H9v-0.7
	c0-0.2,0.1-0.4,0.3-0.4c0.2,0,0.3,0.1,0.3,0.3v0.7h0.3V15.4z M11.5,14.9h-0.3v0.2c-0.1-0.1-0.2-0.2-0.4-0.2c-0.4,0-0.7,0.3-0.7,0.7
	c0,0.4,0.3,0.7,0.7,0.7c0.2,0,0.3-0.1,0.4-0.2v0.2h0.3V14.9z M12.9,15.8c0-0.2-0.2-0.4-0.5-0.4l-0.1,0c-0.1,0-0.2,0-0.2-0.1
	c0-0.1,0.1-0.2,0.3-0.2c0.2,0,0.3,0.1,0.4,0.1l0.1-0.2c-0.1-0.1-0.3-0.1-0.5-0.1c-0.3,0-0.6,0.2-0.6,0.4c0,0.2,0.2,0.3,0.5,0.4
	l0.1,0c0.2,0,0.2,0.1,0.2,0.1c0,0.1-0.1,0.2-0.3,0.2c-0.2,0-0.3-0.1-0.4-0.1l-0.1,0.2c0.2,0.1,0.4,0.2,0.6,0.2
	C12.7,16.3,12.9,16.1,12.9,15.8z M14.2,16.1l-0.1-0.2C14.1,16,14,16,13.9,16c-0.1,0-0.2-0.1-0.2-0.2v-0.6h0.5v-0.3h-0.5v-0.4h-0.3
	v0.4h-0.3v0.3h0.3v0.6c0,0.3,0.1,0.5,0.5,0.5C14,16.3,14.1,16.2,14.2,16.1z M15.7,15.6c0-0.4-0.3-0.7-0.6-0.7
	c-0.4,0-0.7,0.3-0.7,0.7c0,0.4,0.3,0.7,0.7,0.7c0.2,0,0.4,0,0.5-0.2l-0.1-0.2c-0.1,0.1-0.3,0.1-0.4,0.1c-0.2,0-0.4-0.1-0.4-0.3h1
	L15.7,15.6z M16.8,14.9l-0.2,0c-0.2,0-0.3,0.1-0.3,0.2v-0.2H16v1.3h0.3v-0.7c0-0.2,0.1-0.3,0.3-0.3l0.2,0L16.8,14.9z M17.2,15.6
	c0-0.3,0.2-0.4,0.4-0.4c0.1,0,0.2,0,0.3,0.1l0.1-0.2c-0.1-0.1-0.3-0.2-0.5-0.2c-0.4,0-0.7,0.3-0.7,0.7c0,0.4,0.3,0.7,0.7,0.7
	c0.2,0,0.3,0,0.5-0.2L18,15.9c-0.1,0.1-0.2,0.1-0.3,0.1C17.4,16,17.2,15.8,17.2,15.6z M19.6,14.9h-0.3v0.2c-0.1-0.1-0.2-0.2-0.4-0.2
	c-0.4,0-0.7,0.3-0.7,0.7c0,0.4,0.3,0.7,0.7,0.7c0.2,0,0.3-0.1,0.4-0.2v0.2h0.3V14.9z M20.8,14.9l-0.2,0c-0.2,0-0.3,0.1-0.3,0.2v-0.2
	H20v1.3h0.3v-0.7c0-0.2,0.1-0.3,0.3-0.3l0.2,0L20.8,14.9z M22.3,14.4H22v0.7c-0.1-0.1-0.2-0.2-0.4-0.2c-0.4,0-0.7,0.3-0.7,0.7
	c0,0.4,0.3,0.7,0.7,0.7c0.2,0,0.3-0.1,0.4-0.2v0.2h0.3V14.4z M23.1,8.7c0-2.8-2.2-5-5-5s-5,2.2-5,5s2.2,5,5,5
	C20.8,13.7,23.1,11.5,23.1,8.7z"/>
</svg>
