<?xml version="1.0" encoding="utf-8"?>
<!-- Generator: Adobe Illustrator 21.0.0, SVG Export Plug-In . SVG Version: 6.00 Build 0)  -->
<svg version="1.1" id="Layer_1" xmlns="http://www.w3.org/2000/svg" xmlns:xlink="http://www.w3.org/1999/xlink" x="0px" y="0px"
	 width="30px" height="20px" viewBox="0 0 30 20" style="enable-background:new 0 0 30 20;" xml:space="preserve">
<style type="text/css">
	.st0{opacity:0.7;fill:#FFFFFF;}
</style>
<path class="st0" d="M24.6,8.9l0.5,2.1h-1.7L24.2,9l0.3-0.7L24.6,8.9z M30,2.5v15c0,1.4-1.1,2.5-2.5,2.5h-25C1.1,20,0,18.9,0,17.5
	v-15C0,1.1,1.1,0,2.5,0h25C28.9,0,30,1.1,30,2.5z M8.6,13.7l3.2-7.4H9.6l-2,5.1l-0.2-1L6.7,6.9C6.6,6.5,6.2,6.3,5.8,6.3H2.5l0,0.2
	C3.3,6.6,4,6.9,4.6,7.3l1.8,6.5L8.6,13.7z M14.6,6.3h-2l-1.3,7.4h2L14.6,6.3z M20.4,11.3c0-0.8-0.5-1.5-1.7-2
	c-0.7-0.3-1.1-0.6-1.1-0.9c0-0.3,0.4-0.6,1.2-0.6c0.7,0,1.1,0.1,1.5,0.3l0.2,0.1l0.3-1.6c-0.4-0.2-1-0.3-1.8-0.3c-2,0-3.4,1-3.4,2.5
	c0,1.1,1,1.7,1.8,2c0.8,0.4,1.1,0.6,1,0.9c0,0.5-0.6,0.7-1.2,0.7c-0.8,0-1.2-0.1-1.9-0.4l-0.3-0.1l-0.3,1.7c0.5,0.2,1.3,0.4,2.3,0.4
	C19,13.8,20.4,12.8,20.4,11.3z M27.5,13.7l-1.6-7.4h-1.6c-0.5,0-0.8,0.1-1.1,0.6l-3,6.8h2.1l0.4-1.1l2.6,0l0.2,1.1H27.5z"/>
</svg>
