<?xml version="1.0" encoding="utf-8"?>
<!-- Generator: Adobe Illustrator 21.0.0, SVG Export Plug-In . SVG Version: 6.00 Build 0)  -->
<svg version="1.1" id="Layer_1" xmlns="http://www.w3.org/2000/svg" xmlns:xlink="http://www.w3.org/1999/xlink" x="0px" y="0px"
	 width="30px" height="20px" viewBox="0 0 30 20" style="enable-background:new 0 0 30 20;" xml:space="preserve">
<style type="text/css">
	.st0{opacity:0.7;fill:#FFFFFF;}
</style>
<path class="st0" d="M27.5,0h-25C1.1,0,0,1.1,0,2.5v15C0,18.9,1.1,20,2.5,20h25c1.4,0,2.5-1.1,2.5-2.5v-15C30,1.1,28.9,0,27.5,0z
	 M13.4,13.9h-1.7c-0.2,0-0.3-0.1-0.3-0.3c0-0.5,0.3-2.1,1.3-8.2c0-0.2,0.2-0.4,0.4-0.4h3.1c1.6,0,2.8,1,2.5,2.7
	c-0.3,1.8-1.4,2.7-3.3,2.7l-0.9,0c-0.4,0-0.5,0.1-0.6,0.5L13.4,13.9z M19.7,9.7c-0.4,1.8-1.6,2.5-3.1,2.5h-0.2
	c-0.2,0-0.3,0.1-0.4,0.3l-0.3,2.1c0,0.2-0.2,0.3-0.4,0.3h-1.1c-0.2,0-0.3-0.1-0.3-0.3l0.6-3.7l0,0h0.9c2.2,0,3.5-1.1,3.9-3.2
	c0.3,0.3,0.5,0.8,0.5,1.3C19.8,9.3,19.8,9.5,19.7,9.7z"/>
</svg>
