<?xml version="1.0" encoding="utf-8"?>
<!-- Generator: Adobe Illustrator 21.0.0, SVG Export Plug-In . SVG Version: 6.00 Build 0)  -->
<svg version="1.1" id="Layer_1" xmlns="http://www.w3.org/2000/svg" xmlns:xlink="http://www.w3.org/1999/xlink" x="0px" y="0px"
	 width="30px" height="20px" viewBox="0 0 30 20" style="enable-background:new 0 0 30 20;" xml:space="preserve">
<style type="text/css">
	.st0{opacity:0.7;fill:#FFFFFF;}
</style>
<path class="st0" d="M16,8.6V9c0,0.6,0,1.2-0.3,1.7c-0.3,0.5-0.7,0.7-1.1,0.7c-0.6,0-1-0.5-1-1.2C13.6,8.9,14.8,8.6,16,8.6z M30,2.5
	v15c0,1.4-1.1,2.5-2.5,2.5h-25C1.1,20,0,18.9,0,17.5v-15C0,1.1,1.1,0,2.5,0h25C28.9,0,30,1.1,30,2.5z M16,7.1v0.2
	c-1,0.1-2.2,0.2-3.1,0.6c-1,0.4-1.8,1.4-1.8,2.7c0,1.7,1.1,2.6,2.5,2.6c1.2,0,1.8-0.3,2.7-1.2c0.3,0.4,0.4,0.6,0.9,1.1
	c0.1,0.1,0.3,0.1,0.4,0c0.3-0.3,0.9-0.8,1.3-1.1c0.1-0.1,0.1-0.3,0-0.4c-0.3-0.4-0.6-0.8-0.6-1.5V7.4c0-1.1,0.1-2.1-0.7-2.8
	C17,4,15.9,3.8,15.1,3.8c-1.6,0-3.3,0.6-3.7,2.5c0,0.2,0.1,0.3,0.2,0.3l1.6,0.2c0.1,0,0.3-0.2,0.3-0.3c0.1-0.7,0.7-1,1.3-1
	c0.3,0,0.7,0.1,0.9,0.4C16.1,6.3,16,6.7,16,7.1z M19.5,14.1c-1.4,0.8-3,1.1-4.4,1.1c-2.1,0-4.1-0.7-5.8-1.9
	c-0.1-0.1-0.3,0.1-0.1,0.2c1.5,1.7,3.5,2.8,5.8,2.8c1.6,0,3.4-0.6,4.7-1.8C19.9,14.2,19.7,13.9,19.5,14.1z M20.8,13.3
	c-0.1-0.2-1.4-0.3-2.1,0.2c-0.1,0.1-0.1,0.2,0,0.2c0.4-0.1,1.4-0.2,1.5,0.1c0.2,0.2-0.2,1.1-0.3,1.5c0,0.1,0.1,0.2,0.2,0.1
	C20.7,14.7,20.9,13.5,20.8,13.3z"/>
</svg>
