<?xml version="1.0" encoding="utf-8"?>
<!-- Generator: Adobe Illustrator 21.0.0, SVG Export Plug-In . SVG Version: 6.00 Build 0)  -->
<svg version="1.1" id="Layer_1" xmlns="http://www.w3.org/2000/svg" xmlns:xlink="http://www.w3.org/1999/xlink" x="0px" y="0px"
	 width="30px" height="20px" viewBox="0 0 30 20" style="enable-background:new 0 0 30 20;" xml:space="preserve">
<style type="text/css">
	.st0{opacity:0.7;fill:#FFFFFF;}
</style>
<path class="st0" d="M27.5,0h-25C1.1,0,0,1.1,0,2.5v15C0,18.9,1.1,20,2.5,20h25c1.4,0,2.5-1.1,2.5-2.5v-15C30,1.1,28.9,0,27.5,0z
	 M11.8,14.1c0,1.2-0.9,2.1-2.1,2.1H6.7v-4.4c0,0,0.9,0.3,2.1,0.3c2,0,2.6-0.8,2.6-1.7V8H9.6v2.4c0,0.6-0.4,1-1.1,1
	c-0.6,0-1.2-0.2-1.8-0.5V5.8c0-1.2,0.9-2.1,2.1-2.1h3V14.1z M17.6,14.2c0,1.2-0.9,2.1-2.1,2.1h-3.1v-4.8c0.5,0.4,1.4,0.7,2.9,0.7
	c0.8,0,1.6-0.3,1.6-0.3V11c-0.4,0.2-0.9,0.4-1.6,0.5c-1.1,0.1-1.8-0.5-1.8-1.4c0-1,0.7-1.5,1.8-1.4c0.7,0,1.2,0.2,1.6,0.5V8.1
	c0,0-0.8-0.2-1.6-0.3c-1.5-0.1-2.4,0.2-2.9,0.7V5.8c0-1.2,0.9-2.1,2.1-2.1h3.1V14.2z M23.3,14.2c0,1.2-0.9,2.1-2.1,2.1h-3.1V12h3.2
	c0.8,0,1.3-0.4,1.3-1c0-0.6-0.5-1-1.2-1v0c0.6-0.1,1-0.5,1-0.9c0-0.6-0.5-0.9-1.2-1l-0.2,0h-2.9V5.8c0-1.2,0.9-2.1,2.1-2.1h3V14.2z
	 M20.4,10.2l0.1,0c0.2,0.1,0.4,0.3,0.4,0.5c0,0.3-0.2,0.5-0.4,0.5l-0.1,0h-1.2v-1.1L20.4,10.2L20.4,10.2z M19.2,9.6v-1h1.1l0.1,0
	c0.2,0,0.4,0.2,0.4,0.5c0,0.3-0.2,0.5-0.4,0.5l-0.1,0H19.2z"/>
</svg>
